# xmcd CD database file
#
# Track frame offsets:
#	150
#	13090
#	22720
#	34495
#	47860
#	60795
#	70965
#	85870
#	96125
#	106777
#	119970
#	131942
#	144640
#	157062
#	169470
#
# Disc length: 2375 seconds
#
# Revision: 0
# Processed by: cddbd v1.5.1PL0 Copyright (c) Steve Scherf et al.
# Submitted via: CDex 1.50
#
DISCID=d509450f
DTITLE=Billie Jo Spears - Look What They've Done To My Song
DYEAR=2000
DGENRE=Country
TTITLE0=Dallas
TTITLE1=Danny
TTITLE2=Ease The Want In Me
TTITLE3=Fever
TTITLE4=He's On The Run Again
TTITLE5=I Stayed Long Enough
TTITLE6=I'll Never Be Free
TTITLE7=It Makes No Difference Now
TTITLE8=I'm So Lonesome I Could Cry
TTITLE9=It Could Have Been Me
TTITLE10=Look What They've Done To My Song
TTITLE11=Step Child
TTITLE12=Sunshine
TTITLE13=The Cheating Kind
TTITLE14=You're My Man
EXTD=YEAR: 2000
EXTT0=
EXTT1=
EXTT2=
EXTT3=
EXTT4=
EXTT5=
EXTT6=
EXTT7=
EXTT8=
EXTT9=
EXTT10=
EXTT11=
EXTT12=
EXTT13=
EXTT14=
PLAYORDER=
